<?xml version="1.0" standalone="no"?><!DOCTYPE svg PUBLIC "-//W3C//DTD SVG 1.1//EN" "http://www.w3.org/Graphics/SVG/1.1/DTD/svg11.dtd"><svg t="1548984297645" class="icon" style="" viewBox="0 0 1024 1024" version="1.1" xmlns="http://www.w3.org/2000/svg" p-id="10070" xmlns:xlink="http://www.w3.org/1999/xlink" width="200" height="200"><defs>
<style type="text/css">
	.ts0{fill:#0cf}
</style>
</defs>
<path class="ts0" d="M439.182 151.04h145.636c20.389 0 36.409-16.02 36.409-36.409s-16.02-36.409-36.41-36.409H439.183c-20.389 0-36.409 16.02-36.409 36.41s16.02 36.408 36.41 36.408zM759.58 952.036H876.09l-109.227-115.78c42.235-15.292 72.818-55.342 72.818-102.674V296.676c0-60.44-49.516-109.227-109.227-109.227H293.547c-60.44 0-109.227 49.516-109.227 109.227v436.906c0 47.332 30.583 88.11 72.818 102.673L147.91 952.035H264.42l103.4-109.226h288.36l103.4 109.227zM268.06 362.212c0-40.05 32.768-72.818 72.818-72.818h342.244c40.05 0 72.818 32.768 72.818 72.818v123.79c0 40.05-32.768 72.818-72.818 72.818H340.878c-40.05 0-72.818-32.768-72.818-72.818v-123.79z m83.74 400.497c-32.039 0-58.253-26.214-58.253-58.254s26.214-58.254 58.254-58.254 58.254 26.214 58.254 58.254-26.214 58.254-58.254 58.254z m262.145-58.254c0-32.04 26.214-58.254 58.254-58.254s58.254 26.214 58.254 58.254S704.24 762.71 672.2 762.71s-58.254-26.214-58.254-58.254z" p-id="10071"></path></svg>