<?xml version="1.0" encoding="utf-8"?>
<!-- Generator: Adobe Illustrator 22.0.0, SVG Export Plug-In . SVG Version: 6.00 Build 0)  -->
<svg version="1.1" id="图层_1" xmlns="http://www.w3.org/2000/svg" xmlns:xlink="http://www.w3.org/1999/xlink" x="0px" y="0px"
	 viewBox="0 0 200 200" style="enable-background:new 0 0 200 200;" xml:space="preserve">
<style type="text/css">
	.st0{fill:#DFBB65;}
</style>
<path class="st0" d="M160.4,170.3c0-3.4-0.4-6.8-0.7-10.1l-0.2-1.6c-1.8-16.3-4.5-33-8.1-49.6c-9.5-44.2-25.3-78.7-48.1-105.3
	L102.7,3c-0.1-0.1-0.2-0.3-0.3-0.4C101,1,99.1,0.1,97.2,0c-2-0.1-3.9,0.7-5.5,2.2c-0.5,0.3-1,0.9-1.6,1.6
	C67.3,34.2,51.2,69.5,43.4,105.8l-0.5,2.1c-6,27.9-15.1,70,18.6,84.7c11,4.8,22.8,6.1,35.4,6.1c5.1,0,10.3-0.2,15.6-0.5
	c2.2-0.1,4.4-0.1,6.8-0.2c12.6-0.2,26.9-0.5,36.2-11.6c2.8-3.3,4.3-7.5,4.8-12.6C160.6,172.7,160.7,171.5,160.4,170.3z M144.3,174
	c-0.3,1.2-0.7,2.2-1.4,3c-4.1,5.1-13,5.1-20.9,5.2c-2,0-3.9,0-5.6,0.1h0c-1.7,0.1-3.4,0.2-5.1,0.3c-16.8,1-35.9,2.1-49.1-7.3
	c-14.2-10.1-9.2-36.3-5.9-53.7c0.3-1.5,0.6-2.9,0.8-4.3c0.4-2,0.8-4,1.2-5.8c0.8,0.4,1.6,0.8,2.4,1.1c14.6,6.8,29.7,13.9,43.1,22.9
	c15.9,10.6,27.7,24.1,40.3,38.3L144.3,174z M108.5,65.3c-6.4-9.9-15.7-17.3-24.5-23.4c4-7.2,8.3-14.2,13-21
	c8.1,10.5,15.2,22.6,21.2,35.9C114.8,59.4,111.5,62.2,108.5,65.3z M61.9,95.9c3.8-13.6,8.8-27,14.9-39.9c8.4,6.1,16.6,13,21.3,22.9
	c-5,8.4-8.7,18.1-11,29.1c-6.7-3.4-13.6-6.6-20.2-9.8C65.3,97.5,63.6,96.7,61.9,95.9z M101.7,115.8c3.4-19.6,10.9-34.1,22.8-44
	c4.6,12.5,8.5,25.9,11.7,40.9c2.2,10.2,4.8,22.9,6.5,36c-7.8-8.3-16.7-17-27.2-24.3C111.3,121.6,106.7,118.7,101.7,115.8z"/>
</svg>
