<?xml version="1.0" encoding="utf-8"?>
<!-- Generator: Adobe Illustrator 22.0.0, SVG Export Plug-In . SVG Version: 6.00 Build 0)  -->
<svg version="1.1" id="图层_1" xmlns="http://www.w3.org/2000/svg" xmlns:xlink="http://www.w3.org/1999/xlink" x="0px" y="0px"
	 viewBox="0 0 147.3 200" style="enable-background:new 0 0 147.3 200;" xml:space="preserve">
<style type="text/css">
	.st0{fill:#0BCFCA;}
</style>
<path class="st0" d="M73.7,126.1c17.9,0,31.5-13.6,31.5-31.5v-63C105.2,13.7,91.5,0,73.7,0C55.8,0,42.2,13.7,42.2,31.5v63
	C42.2,112.4,55.8,126.1,73.7,126.1 M129.3,94.5c0,31.5-26.3,53.6-55.7,53.6c-29.4,0-55.7-22.1-55.7-53.6H0.2
	c0,35.7,28.4,65.1,63,70.4v34.7h21v-34.7c34.7-5.2,63-34.7,63-70.4L129.3,94.5z"/>
</svg>
