<?xml version="1.0" standalone="no"?><!DOCTYPE svg PUBLIC "-//W3C//DTD SVG 1.1//EN" "http://www.w3.org/Graphics/SVG/1.1/DTD/svg11.dtd">
<svg t="1546508636582" class="icon" style="" viewBox="0 0 1024 1024" version="1.1" 
    xmlns="http://www.w3.org/2000/svg" p-id="13093" 
    xmlns:xlink="http://www.w3.org/1999/xlink" width="200" height="200">
    <style type="text/css">
	*{fill:url(#Gradient1);}
    </style>
    <defs>
        <linearGradient id="Gradient1" gradientUnits="objectBoundingBox">
            <stop offset="0%" stop-color="#0BCFCA"/>
            <stop offset="100%" stop-color="#03B5E6"/>
        </linearGradient>
    </defs>
    <path d="M895.738801 64.3721 448.198905 64.3721c0 0-0.026606 565.588499 0 767.248382-32.18912 0.01842-64.177672 0.073678-64.177672 0l0.39295-511.421832L128.466883 320.198649l0 639.20617c0 0.096191 767.271918 0 767.271918 0C895.885134 959.40482 895.738801 64.3721 895.738801 64.3721zM192.916754 447.40482l126.903272 0c-0.025583 29.443589-0.040932 76.391854-0.046049 128.621403L192.869682 576.026222C192.891172 523.796674 192.907545 476.848409 192.916754 447.40482zM192.662975 831.621505c0.053212 0 0.103354-57.313334 0.145309-128.390135l126.97081 0c0.014326 71.076802 0.048095 128.390135 0.101307 128.390135L192.662975 831.621505zM704.362122 576.025199c0.00614-42.250266 0.011256-86.136799 0.014326-128.621403l127.096676 0c-0.007163 42.484603-0.01228 86.371136-0.01535 128.621403L704.362122 576.025199zM513.160429 447.40482l126.907365 0c-0.002047 42.484603-0.002047 86.371136 0.001023 128.621403L513.122567 576.026222C513.13587 533.775956 513.149173 489.8884 513.160429 447.40482zM704.379519 320.198649c-0.002047-61.252039-0.013303-109.097744-0.036839-128.621403l127.238916 0c-0.030699 19.523659-0.057305 67.369364-0.077771 128.621403L704.379519 320.198649zM640.146589 191.57827c-0.027629 19.523659-0.049119 67.369364-0.062422 128.621403L513.192152 320.199673c0.014326-61.252039 0.023536-109.097744 0.027629-128.621403L640.146589 191.57827zM512.957815 831.621505c0.041956 0 0.080841-52.845579 0.115634-128.390135l127.013789 0c0.017396 75.54558 0.047072 128.390135 0.089028 128.390135L512.957815 831.621505zM704.316074 831.621505c0 0 0.01228-52.845579 0.025583-128.390135L831.460846 703.231369c0.00921 75.54558 0.031722 128.390135 0.073678 128.390135C831.5335 831.621505 704.316074 831.766814 704.316074 831.621505z" p-id="13094"></path>
</svg>