<?xml version="1.0" encoding="utf-8"?>
<!-- Generator: Adobe Illustrator 22.0.0, SVG Export Plug-In . SVG Version: 6.00 Build 0)  -->
<svg version="1.1" id="图层_1" xmlns="http://www.w3.org/2000/svg" xmlns:xlink="http://www.w3.org/1999/xlink" x="0px" y="0px"
	 viewBox="0 0 200 200" style="enable-background:new 0 0 200 200;" xml:space="preserve">
<g>
	<path d="M100.2,129.2L65.4,96.3C52.9,85.9,45.8,70.7,45.8,54.5c0-30,24.4-54.4,54.4-54.4s54.4,24.4,54.4,54.4
		c0,16.1-7,31.2-19.3,41.6L100.2,129.2z M78.2,80.9l0.7,0.6l21.4,20.2l22.1-20.8c7.9-6.6,12.4-16.2,12.4-26.4
		c0-19-15.5-34.4-34.4-34.4S65.8,35.5,65.8,54.5C65.8,64.7,70.3,74.4,78.2,80.9z"/>
</g>
<g>
	<polygon points="129.7,199.4 70.4,168.4 0.9,198.4 0.6,74.5 27.2,59.4 37.1,76.7 20.7,86.1 20.8,168 71.2,146.3 130,177 
		179.8,152.7 179.7,84.1 170.5,88.1 162.5,69.8 199.6,53.6 199.8,165.2 	"/>
</g>
</svg>
