<?xml version="1.0" encoding="utf-8"?>
<!-- Generator: Adobe Illustrator 22.0.0, SVG Export Plug-In . SVG Version: 6.00 Build 0)  -->
<svg version="1.1" id="图层_1" xmlns="http://www.w3.org/2000/svg" xmlns:xlink="http://www.w3.org/1999/xlink" x="0px" y="0px"
	 viewBox="0 0 200 200" style="enable-background:new 0 0 200 200;" xml:space="preserve">
<style type="text/css">
	.st0{fill:#999;}
</style>
<path class="st0" d="M198.1,177.9l-9.4,9.4c-3.8,3.8-8.6,6.9-14.2,9.1c-6.2,2.4-13.1,3.6-20.5,3.6c-28.4,0-73.2-26.4-102.9-56
	C13.8,106.6-8.7,55.2,3.2,25.5c1.7-4.4,4.1-8.2,7-11.6l0,0l0.6-1c0.3-0.4,0.6-0.8,0.9-1.2l9.9-9.8c2.5-2.5,6.6-2.5,9.1,0l4.4,4.4
	l38.7,38.6c2.5,2.5,2.5,6.5,0,9L63.4,64.2l-7,7c0,0-3.7,23.5,22.5,49.6c26.2,26.1,49.6,22.5,49.6,22.5l17.5-17.4
	c2.5-2.5,6.6-2.5,9.1,0l43.1,43C200.6,171.4,200.6,175.4,198.1,177.9z"/>
</svg>
