<?xml version="1.0" encoding="utf-8"?>
<!-- Generator: Adobe Illustrator 22.0.0, SVG Export Plug-In . SVG Version: 6.00 Build 0)  -->
<svg version="1.1" id="图层_1" xmlns="http://www.w3.org/2000/svg" xmlns:xlink="http://www.w3.org/1999/xlink" x="0px" y="0px"
	 viewBox="0 0 200 200" style="enable-background:new 0 0 200 200;" xml:space="preserve">
<g>
	<path d="M99.9,199.8c-47.3,0-85.8-38.5-85.8-85.8c0-47.3,38.5-85.8,85.8-85.8s85.8,38.5,85.8,85.8
		C185.7,161.3,147.2,199.8,99.9,199.8z M99.9,48.2c-36.3,0-65.8,29.5-65.8,65.8s29.5,65.8,65.8,65.8c36.3,0,65.8-29.5,65.8-65.8
		S136.2,48.2,99.9,48.2z"/>
</g>
<g>
	<g>
		<rect x="-1" y="20.1" transform="matrix(0.7071 -0.7071 0.7071 0.7071 -13.1208 28.4223)" width="57.6" height="20"/>
	</g>
	<g>
		<rect x="162" y="1.2" transform="matrix(0.7062 -0.708 0.708 0.7062 29.2535 130.601)" width="20" height="57.6"/>
	</g>
</g>
<g>
	<g>
		<rect x="90.9" y="76.4" width="20" height="44.6"/>
	</g>
	<g>
		<rect x="105.9" y="107" transform="matrix(0.7071 -0.7071 0.7071 0.7071 -59.5333 120.6743)" width="20" height="50.3"/>
	</g>
</g>
</svg>
