<?xml version="1.0" encoding="utf-8"?>
<!-- Generator: Adobe Illustrator 22.0.0, SVG Export Plug-In . SVG Version: 6.00 Build 0)  -->
<svg version="1.1" id="图层_1" xmlns="http://www.w3.org/2000/svg" xmlns:xlink="http://www.w3.org/1999/xlink" x="0px" y="0px"
	 viewBox="0 0 200 200" style="enable-background:new 0 0 200 200;" xml:space="preserve">
<style type="text/css">
	.st0{stroke:#0BCFCA;stroke-width:3;stroke-miterlimit:10; fill:#0BCFCA}
</style>
<path class="st0" d="M165.8,97.3c-0.1-3.8-0.5-7.5-1.2-11.2c-1.3-7-3.8-13.6-7.2-19.7c-1.8-3.3-3.9-6.3-6.3-9.2
	c-12-14.9-30.5-24.4-51.1-24.4c-36.2,0-65.7,29.5-65.7,65.7c0,0.4,0,0.8,0,1.2c0.1,3.8,0.5,7.5,1.2,11.2c1.3,7,3.8,13.6,7.2,19.6
	c1.8,3.3,4,6.4,6.3,9.3c12,14.9,30.4,24.4,51,24.4c36.2,0,65.7-29.5,65.7-65.7C165.8,98.1,165.8,97.7,165.8,97.3z M100.1,154.1
	c-15.4,0-29.3-6.3-39.4-16.4c-2.7-2.7-5.1-5.7-7.2-8.8c-4.6-7-7.7-15.1-8.7-23.8c-0.3-2.2-0.4-4.4-0.4-6.6c0-1.6,0.1-3.2,0.2-4.8
	C47,65.2,71,42.8,100.1,42.8c15.4,0,29.4,6.3,39.5,16.5c2.7,2.7,5,5.6,7.1,8.8c4.6,7,7.7,15.1,8.7,23.8c0.3,2.2,0.4,4.4,0.4,6.6
	c0,1.6-0.1,3.2-0.2,4.8C153.1,131.7,129.2,154.1,100.1,154.1z"/>
<g>
	<path class="st0" d="M191.4,65.2c-3.6-9.9-20.4-10.9-40.3-8c-3.8,0.5-7.6,1.2-11.6,2c2.7,2.7,5,5.6,7.1,8.8
		c3.5-0.6,6.8-1.1,9.9-1.5c0.3,0,0.5-0.1,0.8-0.1c4.4-0.5,8.1-0.7,11.2-0.7c10,0,13.1,2.1,13.4,2.9c0.4,1-1.6,6.9-17.4,17.5
		c-0.2,0.2-0.5,0.3-0.7,0.5c-2.6,1.8-5.5,3.5-8.5,5.3c-9,5.2-19.5,10.4-31,15.3c-5.9,2.5-12.1,5-18.5,7.3
		c-6.3,2.3-12.6,4.4-18.8,6.3c-11.9,3.7-23.3,6.5-33.6,8.2c-3.4,0.6-6.8,1.1-9.9,1.5c-0.3,0-0.5,0.1-0.8,0.1
		c-19,2.1-24.2-1.2-24.6-2.2c-0.4-1,1.5-6.9,17.4-17.5c0.2-0.2,0.5-0.3,0.7-0.5c2.6-1.8,5.5-3.5,8.5-5.3c-0.3-2.2-0.4-4.4-0.4-6.6
		c0-1.6,0.1-3.2,0.2-4.8c-3.6,2-7,4-10.2,5.9c-1.3,0.8-2.5,1.6-3.7,2.3c-17.8,11.7-25,21.5-22,29.7c2.3,6.3,9.8,9.5,22.7,9.5
		c3.9,0,8.3-0.3,13.2-0.8c1.4-0.2,2.9-0.4,4.3-0.6c3.7-0.5,7.6-1.2,11.6-2c9.3-1.9,19.3-4.4,29.6-7.6c6.2-1.9,12.6-4,19-6.4
		c6.4-2.3,12.7-4.8,18.7-7.3c10-4.2,19.3-8.7,27.6-13.2c3.6-2,7-4,10.2-5.9c1.3-0.8,2.5-1.6,3.6-2.3
		C187.2,83.2,194.4,73.5,191.4,65.2z"/>
</g>
<g>
	<path class="st0" d="M125,119.1c0,9.6-7.8,17.4-17.4,17.4c-6.1,0-11.5-3.2-14.6-8c-1.5-2.3-2.5-5.1-2.7-8c0-0.4-0.1-0.9-0.1-1.3
		c0-9.6,7.8-17.4,17.4-17.4c5.8,0,11,2.9,14.1,7.3c1.6,2.3,2.7,4.9,3.1,7.9C124.9,117.6,125,118.3,125,119.1z"/>
</g>
</svg>
