<?xml version="1.0" encoding="utf-8"?>
<!-- Generator: Adobe Illustrator 22.0.0, SVG Export Plug-In . SVG Version: 6.00 Build 0)  -->
<svg version="1.1" id="图层_1" xmlns="http://www.w3.org/2000/svg" xmlns:xlink="http://www.w3.org/1999/xlink" x="0px" y="0px"
	 viewBox="0 0 200 200" style="enable-background:new 0 0 200 200;" xml:space="preserve">
<style type="text/css">
	.st0{fill:#DFBB65;}
</style>
<g>
	<path class="st0" d="M114.9,108.9l-10.6,0c-1.5-0.1-3-0.4-4.3-0.9c-4.7-1.7-8.1-6.5-8.1-11.9V37.6c0-18.4,15-33.5,33.5-33.5l13.7,0
		c8.1,0.1,14.6,6.6,14.6,14.6v51.4c0,19.1-13.7,35.2-32.5,38.3l-1.2,0.2C118.2,108.8,116.5,108.9,114.9,108.9z M108.4,92.5h6.5
		c1.1,0,2.2-0.1,3.2-0.2c0.2,0,0.4-0.1,0.6-0.1c10.8-1.8,18.5-11.1,18.5-22V20.6l-11.8,0c-9.4,0-17,7.6-17,17V92.5z"/>
</g>
<g>
	<path class="st0" d="M165.7,63.2h-15.1c-7.1,0-12.8-5.7-12.8-12.8V30c0-18.1,9.5-27.3,28.1-27.3h18.7c8.1,0,14.6,6.6,14.6,14.6
		v13.3C199.2,51.6,187.3,63.2,165.7,63.2z M154.2,46.8h11.4c12.7,0,17-4.1,17-16.2V19.1h-16.8c-10.2,0-11.7,2.3-11.7,10.8V46.8z"/>
</g>
<g>
	<path class="st0" d="M119.9,108.5l-1.3-16.4c10.8-1.8,18.7-11.1,18.7-22V46.8l13.4-0.1l0.4,0l31.2,0c8,0,14.5,6.5,14.6,14.6v13.8
		c0,18.4-15,33.4-33.4,33.4L119.9,108.5z M153.7,63.2v6.9c0,8.1-2.5,15.7-6.7,21.9l16.4,0c9.3,0,17-7.6,17-17V63.2L153.7,63.2z"/>
</g>
<g>
	<path class="st0" d="M117.4,153.9H58.9c-7,0-12.8-5.7-12.8-12.8v-10.2c0-2.4,0.2-4.5,0.6-6.5L63,126v11.3h6.5
		c6,0,11.6-2.3,15.8-6.6c4.2-4.2,6.5-9.8,6.5-15.7V92.2l12.8-0.1l0.8,0.3h9.4c1.1,0,2.2-0.1,3.2-0.2l1-0.1l17.2,0
		c3.7-0.2,7.5,1.5,10.3,4.2c2.8,2.8,4.3,6.5,4.3,10.4l0,13.7c0,8.9-3.4,17.3-9.7,23.6C134.8,150.4,126.4,153.9,117.4,153.9z
		 M101.2,137.4h16.2c4.5,0,8.8-1.8,12-5c3.2-3.2,4.9-7.4,4.9-11.9l0-11.9l-14.8,0c-1.7,0.2-3.2,0.3-4.7,0.3h-6.6v6.1
		C108.3,123.2,105.8,130.9,101.2,137.4z M136.3,108.6C136.3,108.6,136.3,108.6,136.3,108.6L136.3,108.6z"/>
</g>
<g>
	<path class="st0" d="M69.5,153.8H59.3c-7,0-12.8-5.7-12.8-12.8l0-58.6C46.5,64,61.5,49,80,49l13.7,0c3.9,0,7.6,1.5,10.4,4.3
		c2.8,2.8,4.2,6.5,4.2,10.4V115c0,10.3-4,20.1-11.3,27.4C89.6,149.8,79.9,153.8,69.5,153.8z M63,137.3h6.5c6,0,11.6-2.3,15.8-6.6
		c4.2-4.2,6.5-9.8,6.5-15.7V65.5l-11.9,0c-9.3,0-17,7.6-17,17L63,137.3z M93.7,65.5C93.7,65.5,93.7,65.5,93.7,65.5L93.7,65.5z
		 M91.8,63.7C91.8,63.7,91.8,63.7,91.8,63.7L91.8,63.7z"/>
</g>
<g>
	<path class="st0" d="M12.6,200c-3.3,0-6.5-1.3-8.9-3.7c-2.4-2.4-3.8-5.7-3.7-9.1V177c0-2.4,0.2-4.6,0.6-6.6l16.3,1.6l0,11.4h6.5
		c12.3,0,22.3-10,22.3-22.3v-22.8l44.4,0c8,0,14.6,6.5,14.6,14.5l0,13.8c0,18.4-15,33.4-33.4,33.4H12.8C12.7,200,12.7,200,12.6,200z
		 M62.2,154.7v6.4c0,8.3-2.6,16.1-7.1,22.4h16.3c9.3,0,17-7.6,17-17l0-11.9L62.2,154.7z"/>
</g>
<g>
	<path class="st0" d="M23.4,199.9H13.2c-7,0-12.8-5.7-12.8-12.8l0-58.6c0-18.4,15-33.4,33.4-33.4h13.7c8.1,0.1,14.6,6.6,14.6,14.6
		v51.4C62.2,182.5,44.8,199.9,23.4,199.9z M16.9,183.4h6.5c12.3,0,22.3-10,22.3-22.3v-49.5H33.8c-9.3,0-17,7.6-17,17L16.9,183.4z"/>
</g>
</svg>
