<?xml version="1.0" encoding="utf-8"?>
<!-- Generator: Adobe Illustrator 22.0.0, SVG Export Plug-In . SVG Version: 6.00 Build 0)  -->
<svg version="1.1" id="图层_1" xmlns="http://www.w3.org/2000/svg" xmlns:xlink="http://www.w3.org/1999/xlink" x="0px" y="0px"
	 viewBox="0 0 167.2 200" style="enable-background:new 0 0 167.2 200;" xml:space="preserve">
<style type="text/css">
	.st0{fill:#0bcfca;}
</style>
<g>
	<circle class="st0" cx="114.3" cy="48.3" r="47.9"/>
</g>
<g>
	<path class="st0" d="M137.1,89.2L73.2,25.3c-3.8-3.8-3.8-10.1,0-13.9l1.9-1.9c3.8-3.8,10.1-3.8,13.9,0L153,73.4
		c3.8,3.8,3.8,10.1,0,13.9l-1.9,1.9C147.2,93,141,93,137.1,89.2z"/>
</g>
<g>
	<path class="st0" d="M82.3,42.8L0.5,130l31,31l88.2-80.9L82.3,42.8z M54.7,117.3l-9.5-9.5l22.2-22.2l9.5,9.5L54.7,117.3z"/>
</g>
<g>
	<path class="st0" d="M35.7,200c-8.9,0-17.8-3.4-24.6-10.2c-13.6-13.6-13.6-35.6,0-49.2l10.8,10.8c-7.6,7.6-7.6,19.9,0,27.5
		c7.6,7.6,19.9,7.6,27.5,0l57.8-57.8l10.8,10.8l-57.8,57.8C53.5,196.6,44.6,200,35.7,200z"/>
</g>
<g>
	<path class="st0" d="M60.3,189.8L49.4,179l57.8-57.8c13.6-13.6,35.6-13.6,49.2,0c13.6,13.6,13.6,35.6,0,49.2l-10.8-10.8
		c7.6-7.6,7.6-19.9,0-27.5c-7.6-7.6-19.9-7.6-27.5,0L60.3,189.8z"/>
</g>
</svg>
