<?xml version="1.0" encoding="utf-8"?>
<!-- Generator: Adobe Illustrator 22.0.0, SVG Export Plug-In . SVG Version: 6.00 Build 0)  -->
<svg version="1.1" id="图层_1" xmlns="http://www.w3.org/2000/svg" xmlns:xlink="http://www.w3.org/1999/xlink" x="0px" y="0px"
	 viewBox="0 0 200 200" style="enable-background:new 0 0 200 200;" xml:space="preserve">
<style type="text/css">
	.st0{fill:#999;}
</style>
<path class="st0" d="M173.1,41.4l-17.2-17.1c-3.1-3.1-8.2-3.1-11.3,0s-3.1,8.2,0,11.3l11.2,11.2l-8.3,8.6c-2.7,2.8-2.7,7.2,0,10
	c1.3,1.4,3.1,2.1,4.9,2.1l9.3,0v73.2c0,2.7-2.2,4.9-4.9,4.9s-4.9-2.2-4.9-4.9V95.1c0-11.7-9.5-21.1-21.1-21.1h-4.9v-52h-13H44.6h-13
	v137.9h-9.8v20h113.9v-20h-9.8V90.2h4.9c2.7,0,4.9,2.2,4.9,4.9v45.5c0,11.7,9.5,21.1,21.1,21.1c11.7,0,21.1-9.5,21.1-21.1V53.1
	C178,48.5,176.1,44.4,173.1,41.4z M44.1,83V34.9h69.3V83H44.1z"/>
</svg>
