<?xml version="1.0" encoding="utf-8"?>
<!-- Generator: Adobe Illustrator 22.0.0, SVG Export Plug-In . SVG Version: 6.00 Build 0)  -->
<svg version="1.1" id="图层_1" xmlns="http://www.w3.org/2000/svg" xmlns:xlink="http://www.w3.org/1999/xlink" x="0px" y="0px"
	 viewBox="0 0 200 200" style="enable-background:new 0 0 200 200;" xml:space="preserve">
<g>
	<style>
		.ts0{fill:#0bcfca}
	</style>
	<path class="ts0" d="M99.9,0.1C44.8,0.1,0.1,44.8,0.1,99.9s44.7,99.8,99.8,99.8s99.8-44.7,99.8-99.8S155,0.1,99.9,0.1z M111.5,120.5H80.2V173
		H63.5V45.9h16.6h31.3c20.6,0,37.3,16.7,37.3,37.3S132.1,120.5,111.5,120.5z"/>
	<path class="ts0" d="M80.2,62.5v41.3h0.1h31.2c11.4,0,20.7-9.2,20.7-20.7s-9.2-20.7-20.7-20.7H80.3C80.3,62.5,80.2,62.5,80.2,62.5z"/>
</g>
</svg>
