<?xml version="1.0" encoding="utf-8"?>
<!-- Generator: Adobe Illustrator 22.0.0, SVG Export Plug-In . SVG Version: 6.00 Build 0)  -->
<svg version="1.1" id="图层_1" xmlns="http://www.w3.org/2000/svg" xmlns:xlink="http://www.w3.org/1999/xlink" x="0px" y="0px"
	 viewBox="0 0 200 200" style="enable-background:new 0 0 200 200;" xml:space="preserve">
<style type="text/css">
	.st0{stroke:#0bcfca;stroke-miterlimit:10;fill:#0bcfca}
</style>
<polygon class="st0" points="77.1,33.5 113.2,59.7 113.2,7.4 "/>
<path class="st0" d="M57.2,114.5h85.5c30.3,0,55-18.3,55-44.9s-24.7-48.2-55-48.2h-41.3v24.4h41.3c16.3,0,29.5,10.7,29.5,23.9
	S159,90.1,142.7,90.1H57.2c-30.3,0-55,25-55,51.6s24.7,48.2,55,48.2h93.3v-0.2c-4.8-2.6-13.9-13.2-18.5-24.2H57.2
	c-16.3,0-29.5-10.7-29.5-23.9C27.6,128.6,40.9,114.5,57.2,114.5z"/>
<path class="st0" d="M41,0.1c-17.2,0-31.2,14-31.2,31.2c0,3.4,0.8,6.9,2.2,10.4C17.7,56.1,33,70,39,73.5c0.9,0.5,1.6,0.8,2,0.8
	c3.9,0,31.2-23.4,31.2-42.9c0,0,0,0,0,0C72.2,14.1,58.2,0.1,41,0.1z M41,43.2c-6.5,0-11.8-5.3-11.8-11.8c0-6.5,5.3-11.8,11.8-11.8
	c6.5,0,11.8,5.3,11.8,11.8C52.8,37.9,47.5,43.2,41,43.2z"/>
<path class="st0" d="M163.2,119.6c-16.4,0-29.6,13.3-29.6,29.6c0,3.2,0.8,6.5,2.1,9.8c5.4,13.6,19.9,26.9,25.6,30.1c0.9,0.5,1.5,0.8,1.9,0.8
	c3.7,0,29.6-22.2,29.6-40.7c0,0,0,0,0,0C192.8,132.9,179.6,119.6,163.2,119.6z M163.2,160.5c-6.2,0-11.2-5-11.2-11.2
	c0-6.2,5-11.2,11.2-11.2c6.2,0,11.2,5,11.2,11.2C174.4,155.5,169.4,160.5,163.2,160.5z"/>
</svg>
