<?xml version="1.0" encoding="utf-8"?>
<!-- Generator: Adobe Illustrator 22.0.0, SVG Export Plug-In . SVG Version: 6.00 Build 0)  -->
<svg version="1.1" id="图层_1" xmlns="http://www.w3.org/2000/svg" xmlns:xlink="http://www.w3.org/1999/xlink" x="0px" y="0px"
	 viewBox="0 0 200 200" style="enable-background:new 0 0 200 200;" xml:space="preserve">
	 <style>
		.ts0{fill:#999}
	 </style>
<path class="ts0" d="M48.6,125.4l9.8-78.2h44.3c0.4-2.8,1.1-4-3.7-15.2c-4.7-11-7.9-8-11.1-12c-3.2-4-0.9-6.1-4.2-8.7c-4.9-3.8-3.6,0.8-11.5-2
	C65.5,7,61.2-0.1,54.4,2.7C38.7,9.3,43.8,22.2,40.6,26.2c-3.2,4-8.3,3.2-11.2,6.9s-5.7,13.7-5.7,17c0,3.3,0.6-1.2,0,0.8
	c-0.6,2-5-0.5-8.5,3.5c-3.5,4-1,6.6-4.2,11.9c-3.2,5.3-11,6.9-11,20.5c-0.1,16.8,6.4,18.1,5.1,24.7c-1.4,7.4-6.7,18.6-1.3,30.3
	s14.7,19.7,25.9,19.3s7.5-4.3,14.4-4.3c3.1,0,6.2,1.1,9.9,2c0.6,11.6,0.5,29.3,0.5,29.3h8.4c0,0-0.6-3.5-0.8-15.1
	c-0.1-5.1,0.4-9.7,1.2-13.7c0.1,0,0.1,0,0.2,0c1.9-0.5,1-0.3,2.3-0.8l-0.1-33L48.6,125.4z"/>
<path class="ts0" d="M193.1,60.2H97H71.6l-5.7,54.1h10.8v47.8V188h112.5v-73.7H200L193.1,60.2z M120.8,146.4h-19.9h-9.1v-25.3h28.3h0.6V146.4z
	 M175.6,146.4h-30.1v-25.3h30.1V146.4z"/>
<rect class="ts0" x="149.4" y="35.4" width="18" height="29.2"/>
</svg>
