<?xml version="1.0" encoding="utf-8"?>
<!-- Generator: Adobe Illustrator 22.0.0, SVG Export Plug-In . SVG Version: 6.00 Build 0)  -->
<svg version="1.1" id="图层_1" xmlns="http://www.w3.org/2000/svg" xmlns:xlink="http://www.w3.org/1999/xlink" x="0px" y="0px"
	 viewBox="0 0 200 158.2" style="enable-background:new 0 0 200 158.2;" xml:space="preserve">
<style type="text/css">
	.st0{fill:#0BCFCA;}
</style>
<polygon class="st0" points="143.3,30.7 139.3,30.7 134.2,73.7 134.6,74.6 142.5,74.6 178.4,158 198.8,158 "/>
<path class="st0" d="M161.6,149.2l-28-65.8H127h-1.4l-0.4-0.9L93.9,0h-4l-1.4,3.1L87.3,0h-4L68.9,31.9l0,0l-9.4,20.7h-5.3h-6.6
	L0,158h6.6h9.3h6.6h92.7h6.6h7.5H115c-2-16.4-13.5-30.5-43.9-26.4c-11.8,1.5-24.9-4.4-31.3-12.3c-11.7-14.8-5.8-34.2-5.4-37
	c-0.9,5.2,5.3,21.8,11.1,29c3.1,3.8,20,6.6,27,5.6c40.6-5.4,53.7,17.1,56.7,41h29.6h6.6L161.6,149.2z"/>
</svg>
