<?xml version="1.0" standalone="no"?><!DOCTYPE svg PUBLIC "-//W3C//DTD SVG 1.1//EN" "http://www.w3.org/Graphics/SVG/1.1/DTD/svg11.dtd">
<svg t="1546508775805" class="icon" style="" viewBox="0 0 1024 1024" version="1.1" xmlns="http://www.w3.org/2000/svg" p-id="16929" xmlns:xlink="http://www.w3.org/1999/xlink" width="200" height="200"><defs>
<style type="text/css">
	.st0{fill:#999}
</style>
</defs>
<path class="st0" d="M997.393067 128.273067l-129.109334-97.501867a68.266667 68.266667 0 0 0-95.624533 13.329067L623.581867 241.493333h286.208c25.668267 0 50.107733 8.174933 70.417066 22.784l30.498134-40.379733a68.266667 68.266667 0 0 0-13.312-95.624533z" fill="#040000" p-id="16930"></path>
<path class="st0" d="M909.806933 309.76H238.4384L209.954133 167.253333a35.089067 35.089067 0 0 0-34.4064-28.2112H35.157333a35.106133 35.106133 0 0 0 0 70.212267h111.616l32.546134 162.884267 0.0512 0.597333 69.239466 346.1632 13.892267 69.5296 0.0512 0.1536 1.058133 5.3248a52.6336 52.6336 0 0 0 51.626667 42.325333h510.344533a52.667733 52.667733 0 0 0 51.626667-42.325333l84.241067-421.1712a52.6848 52.6848 0 0 0-51.643734-62.976z" fill="#040000" p-id="16931"></path>
<path class="st0" d="M400.964267 938.752m-68.266667 0a68.266667 68.266667 0 1 0 136.533333 0 68.266667 68.266667 0 1 0-136.533333 0Z" fill="#040000" p-id="16932"></path>
<path class="st0" d="M742.2976 938.752m-68.266667 0a68.266667 68.266667 0 1 0 136.533334 0 68.266667 68.266667 0 1 0-136.533334 0Z" fill="#040000" p-id="16933"></path></svg>