<?xml version="1.0" encoding="utf-8"?>
<!-- Generator: Adobe Illustrator 22.0.0, SVG Export Plug-In . SVG Version: 6.00 Build 0)  -->
<svg version="1.1" id="图层_1" xmlns="http://www.w3.org/2000/svg" xmlns:xlink="http://www.w3.org/1999/xlink" x="0px" y="0px"
	 viewBox="0 0 213.3 200" style="enable-background:new 0 0 213.3 200;" xml:space="preserve">
<g>
	<style>
		.ts0{fill:#0bcfca}
	</style>
	<path class="ts0" d="M54.1,43.7c5.7,0.1,11.4-2.2,15.4-6.4c4.1-4,6.5-9.6,6.5-15.3c0.1-5.7-2.2-11.3-6.4-15.3c-4.1-4-9.7-6.2-15.4-6.1
		c-5.7-0.1-11.3,2.1-15.4,6.1c-4.3,3.9-6.6,9.5-6.5,15.3c-0.1,5.8,2.2,11.4,6.4,15.5C42.7,41.7,48.4,43.8,54.1,43.7z"/>
	<path class="ts0" d="M149.1,43.7c5.7,0.1,11.4-2.2,15.4-6.4c4.1-4,6.5-9.6,6.5-15.3c0.1-5.7-2.2-11.3-6.4-15.3c-4.1-4.1-9.7-6.4-15.5-6.3
		c-5.7-0.1-11.3,2.1-15.4,6.1c-4.3,4-6.6,9.7-6.4,15.4c-0.1,5.8,2.2,11.4,6.4,15.5C137.9,41.6,143.4,43.8,149.1,43.7z"/>
	<path class="ts0" d="M54.1,43.7L54.1,43.7L54.1,43.7L54.1,43.7z"/>
	<path class="ts0" d="M170.4,64.2c-2.6-9.2-11.2-15.5-20.8-15.1h-0.9c-9.7-0.4-18.3,6-20.8,15.2l-25.6,77h30.1v58.6h33.6v-58.6H196L170.4,64.2z"
		/>
	<path class="ts0" d="M68.7,49L68.7,49h-29c-5.7,0-11.2,2.4-15.1,6.6c-4.1,4-6.5,9.5-6.5,15.2v55.7h14.6v73.2h43.2v-73.2h14.6V70.9
		c0-5.7-2.3-11.3-6.5-15.2C79.8,51.5,74.4,49.1,68.7,49z"/>
</g>
</svg>