<?xml version="1.0" encoding="utf-8"?>
<!-- Generator: Adobe Illustrator 22.0.0, SVG Export Plug-In . SVG Version: 6.00 Build 0)  -->
<svg version="1.1" id="图层_1" 
	xmlns="http://www.w3.org/2000/svg" 
	xmlns:xlink="http://www.w3.org/1999/xlink" x="0px" y="0px" viewBox="0 0 200 200" style="enable-background:new 0 0 200 200;" xml:space="preserve">
	<style type="text/css">
	*{fill:url(#Gradient1);}
	</style>
	<defs>
		<linearGradient id="Gradient1" gradientUnits="objectBoundingBox">
			<stop offset="0%" stop-color="#0BCFCA"/>
			<stop offset="100%" stop-color="#03B5E6"/>
		</linearGradient>
	</defs>
	<path d="M100.8,199.5C90.4,199.5,17,136.6,17,84.2c0-46.3,37.5-83.8,83.8-83.9s83.8,37.5,83.9,83.8c0,0,0,0,0,0.1
	C184.7,136.6,111.3,199.5,100.8,199.5z M100.8,126.2c23.1,0,41.9-18.8,41.9-41.9c0-23.1-18.8-41.9-41.9-41.9c0,0,0,0,0,0
	c-23.1,0-41.9,18.8-41.9,41.9C58.9,107.4,77.7,126.1,100.8,126.2z"/>
</svg>
