<?xml version="1.0" encoding="utf-8"?>
<!-- Generator: Adobe Illustrator 22.0.0, SVG Export Plug-In . SVG Version: 6.00 Build 0)  -->
<svg version="1.1" id="图层_1" xmlns="http://www.w3.org/2000/svg" xmlns:xlink="http://www.w3.org/1999/xlink" x="0px" y="0px"
	 viewBox="0 0 249.8 142.7" style="enable-background:new 0 0 249.8 142.7;" xml:space="preserve">
	 <style>
		.st0{fill:#DFBB65}
	 </style>
<path class="st0" d="M191.3,3.9l0.1-0.4L191,3.3c-0.5-1.1-1.4-2-2.5-2.6c-0.2-0.1-0.5-0.3-0.8-0.4c-2.4-1.1-5.1-1.1-7.6-0.1
	c-2.4,0.9-4.5,2.8-5.5,5.2c-2.1,4.7-7,11.2-10.5,15.7c-0.6-0.4-1.1-0.6-1.2-0.6c-0.1,0-0.1-0.1-0.1-0.1c-12.3-7.6-26.4-4.3-39.8,9.2
	c-4.2,4.2-7.5,9.1-10.1,14.5c-4.8,10.1-21.3,31.2-23.2,33.6l-0.1,0.1c-12.3,15.8-26.9,25.8-43.4,29.9c-12.5,3.1-21.6,1.5-23.3,1.1
	c-8.8-2.6-14.7-2.5-18.7,0.1c-0.9,0.6-1.6,1.2-2.2,1.9l-0.2-0.1l-0.1,0.4c-1.1,1.4-1.8,3.2-2,5.2c-0.6,5,2.2,9.9,6.7,12.1
	c18.5,9,36.8,13.6,54.6,13.6c17.4,0,28.6-4.6,30.7-5.5c14.6-4.9,28.4-11.3,40.6-18.9c9.7-6,18.8-13,27.1-20.9
	c14.1-13.6,20.2-24.9,20.9-26.1c4.5-7.5,6.2-14.8,5.3-21.9l0.2-0.9l-0.4-0.1c-0.2-1.3-0.5-2.6-0.9-3.9c-0.9-2.9-2.2-5.6-3.8-8
	l10.5-27.7C191.8,6.7,191.8,5.2,191.3,3.9z M88,125.6c-0.4,0.1-0.7,0.3-1.1,0.4c-0.9,0.4-8.9,3.8-22.1,4.4c-2.1,0.1-4.2,0.1-6.3,0.1
	c11.5-1.4,26.5-4.7,44.7-12.2c0.2-0.1,0.5-0.2,0.7-0.4h0.1c0.1,0,0.1-0.1,0.3-0.1c12.1-5.7,24.2-13.1,34-20.7
	c8.8-6.9,15.9-14.2,21-21.6c4.9-7,8.1-14.2,9.6-21.5c1.6,0.9,3.2,1.7,4.9,2.3c-0.6,2.7-1.7,5.5-3.4,8.4c-0.1,0.2-0.2,0.4-0.4,0.6
	c-0.2,0.4-5.7,10.7-18.7,23.3C134.6,104.7,113.2,117.2,88,125.6z M171,41.8c-3.5-2.5-6.4-5.6-8.5-8.4C165.1,35.2,168.5,38,171,41.8z
	 M145.8,28.1c1.1,2.3,3,5.9,6.1,10.2c1.7,2.4,3.9,5.1,6.5,7.7c-0.6,14.1-9.7,28.2-27.2,42c-9.1,7.2-20.4,14.1-31.7,19.4l-0.5,0.2
	c-0.1,0-0.1,0.1-0.1,0.1c-25.8,10.6-44.5,12.5-56.1,12.1c15.4-2.4,36.7-10.7,55.8-35.1c0.8-0.9,19-23.8,24.6-35.9
	c1.9-4.2,4.6-8,7.8-11.3C136.3,32.3,141.2,29.1,145.8,28.1z M16.3,118.8l-0.8,1.4c-1.4-0.6-2.7-1.2-4-1.9
	C12.5,118.2,14,118.2,16.3,118.8z"/>
<path class="st0" d="M249.7,110.6l0.2-0.1l-0.1-0.2c0.1-0.6,0-1.2-0.4-1.7c-0.1-0.1-0.1-0.2-0.2-0.3c-0.7-1.1-1.8-1.8-3-2
	c-1.2-0.2-2.5,0-3.6,0.7c-2,1.4-5.7,2.7-8.3,3.6c-0.2-0.3-0.3-0.5-0.3-0.6c0,0,0,0,0-0.1c-3-6.2-9.6-8.5-18.5-6.5
	c-2.8,0.6-5.4,1.8-7.8,3.3c-4.5,2.9-16.6,7.2-18,7.6l0,0c-9,3.2-17.5,3.5-25.2,0.9c-5.8-2-9.1-4.9-9.7-5.5c-2.9-3.3-5.3-4.8-7.6-4.8
	c-0.5,0-1,0.1-1.4,0.2l-0.1-0.1l-0.1,0.2c-0.8,0.3-1.5,0.8-2.1,1.6c-1.5,1.9-1.7,4.6-0.4,6.6c5.2,8.4,11.4,14.9,18.6,19.5
	c7.1,4.5,12.8,5.5,13.8,5.7c7.2,1.8,14.4,2.7,21.3,2.8c5.4,0.1,10.9-0.4,16.3-1.5c9.2-1.9,14.6-4.9,15.2-5.2
	c3.7-1.9,6.3-4.4,7.8-7.5l0.3-0.3l-0.1-0.1c0.2-0.6,0.5-1.2,0.6-1.8c0.4-1.4,0.5-2.8,0.5-4.2l11.4-8.5
	C249.2,111.9,249.5,111.2,249.7,110.6z M176.7,133.3c-0.2,0-0.4-0.1-0.5-0.1c-0.4-0.1-4.6-0.7-10.1-3.9c-0.9-0.5-1.7-1-2.6-1.6
	c5,2.4,11.9,4.9,21.2,6.5c0.1,0,0.3,0,0.4,0l0,0c0,0,0.1,0,0.2,0c6.4,0.8,13.1,0.9,19.1,0.3c5.3-0.5,10.1-1.7,14.1-3.3
	c3.8-1.6,6.9-3.7,9.4-6.2c0.4,0.8,0.9,1.5,1.4,2.2c-0.9,1-2.1,1.8-3.5,2.5c-0.1,0.1-0.2,0.1-0.3,0.1c-0.2,0.1-5,2.9-13.5,4.6
	C200.9,136.8,189,136.3,176.7,133.3z M231.8,120.7c-0.8-1.9-1.1-3.9-1.3-5.6C231.1,116.5,231.7,118.5,231.8,120.7z M225.1,108.7
	c-0.2,1.2-0.3,3.2-0.1,5.7c0.1,1.4,0.3,3.1,0.7,4.8c-3.8,5.5-11.2,8.9-21.8,10c-5.5,0.6-11.9,0.5-17.8-0.3l-0.3,0c0,0,0,0,0,0
	c-13.1-2.3-21.2-6.4-25.8-9.5c6.9,3,17.6,5.1,31.6,0.1c0.6-0.2,13.8-4.7,19.2-8.2c1.9-1.2,3.9-2.1,6.1-2.5
	C220.2,107.9,223,107.9,225.1,108.7z M149.5,112.1l-0.7,0.3c-0.4-0.6-0.8-1.2-1.1-1.8C148.1,110.9,148.7,111.3,149.5,112.1z"/>
</svg>
