<?xml version="1.0" encoding="utf-8"?>
<!-- Generator: Adobe Illustrator 22.0.0, SVG Export Plug-In . SVG Version: 6.00 Build 0)  -->
<svg version="1.1" id="图层_1" xmlns="http://www.w3.org/2000/svg" xmlns:xlink="http://www.w3.org/1999/xlink" x="0px" y="0px"
	 viewBox="0 0 200 200" style="enable-background:new 0 0 200 200;" xml:space="preserve">
	 <style>
		.ts0{fill: #DFBB65}
	 </style>
<path class="ts0" d="M188.9,67H187c-2.8-11.7-8.6-20.4-17.3-25.8c-6.2-3.8-13.6-5.7-22-5.7c-6.3-15.8-24.5-31.6-50.9-30.1
	C73.9,6.7,59,21.4,52.6,35.1c-10.5,0.6-19.1,4.3-25.7,11.1c-5.1,5.1-9,12.1-11.7,20.9h-4c-4.2,0-7.5,3.3-7.5,7.5
	c0,38.5,22.7,73,57.9,88.4v21.7c0,5.5,4.2,10,9.4,10h58.4c5.2,0,9.4-4.5,9.4-10V163c35-15.5,57.6-50,57.6-88.4
	C196.5,70.3,193.2,67,188.9,67z M30.8,67.2c1.6-4.1,3.8-7.6,6.6-10.4v0c5-5,11.4-7.2,19.7-6.7c3.3,0.2,6.6-2.1,7.6-5.2l0.1-0.2
	c0.7-1.9,8.4-22.9,32.9-24.1c22.2-1.1,35.4,13.9,37.4,24.5c0.4,2,1.5,3.6,3.2,4.8c1.6,1.1,3.7,1.5,5.9,1c0,0,0.1,0,0.1,0
	c2.4-0.4,10.7-1.4,17.8,3c4.4,2.7,7.6,7.1,9.6,13.2H30.8z M181.2,81.9C177.3,123.6,142,156,99.9,156c-42.2,0-77.4-32.4-81.2-74.1
	H181.2z M123.5,168.1v11.6H76.3V168c8,2,15.9,3,23.6,3C108,171.1,116,170.1,123.5,168.1z"/>
</svg>
