<?xml version="1.0" encoding="utf-8"?>
<!-- Generator: Adobe Illustrator 22.0.0, SVG Export Plug-In . SVG Version: 6.00 Build 0)  -->
<svg version="1.1" id="图层_1" xmlns="http://www.w3.org/2000/svg" xmlns:xlink="http://www.w3.org/1999/xlink" x="0px" y="0px"
	 viewBox="0 0 200 200" style="enable-background:new 0 0 200 200;" xml:space="preserve">
<style type="text/css">
	.st0{fill:#DFBB65;}
</style>
<g>
	<path class="st0" d="M101.3,150.5L2.8,117.1l1.5-6.1c11-44.8,51-76,97.1-76c46.1,0,86.1,31.2,97.1,76l1.5,6.1L101.3,150.5z
		 M19.3,108.2l82,27.8l82.1-27.9c-11.5-35.3-44.4-59.5-82-59.5C63.7,48.6,30.8,72.8,19.3,108.2z"/>
</g>
<g>
	<path class="st0" d="M101.7,177.5c-14.7,0-27.4-10-30.9-24.2l-1.5-6.1l32.5-11l32.4,11l-1.5,6.1
		C129.2,167.5,116.4,177.5,101.7,177.5z M86.7,155.8c3.3,4.9,8.9,8,15.1,8c6.2,0,11.8-3.1,15.1-8l-15.1-5.1L86.7,155.8z"/>
</g>
<g>
	
		<rect x="94.7" y="143.1" transform="matrix(0.3291 -0.9443 0.9443 0.3291 -67.2166 192.0225)" class="st0" width="13.7" height="0.4"/>
</g>
<g>
	
		<rect x="100.9" y="136.5" transform="matrix(0.9443 -0.3291 0.3291 0.9443 -41.5306 41.2663)" class="st0" width="0.4" height="13.7"/>
</g>
<g>
	
		<rect x="70.6" y="49" transform="matrix(0.8792 -0.4765 0.4765 0.8792 -37.8846 48.8756)" class="st0" width="13.7" height="100.4"/>
</g>
<g>
	
		<rect x="74.7" y="91.3" transform="matrix(0.4766 -0.8791 0.8791 0.4766 -20.9704 161.1599)" class="st0" width="100.4" height="13.7"/>
</g>
</svg>
