<?xml version="1.0" encoding="utf-8"?>
<!-- Generator: Adobe Illustrator 22.0.0, SVG Export Plug-In . SVG Version: 6.00 Build 0)  -->
<svg version="1.1" id="图层_1" xmlns="http://www.w3.org/2000/svg" xmlns:xlink="http://www.w3.org/1999/xlink" x="0px" y="0px"
	 viewBox="0 0 200 200" style="enable-background:new 0 0 200 200;" xml:space="preserve">
<style type="text/css">
	.st0{fill:#D1B384;}
</style>
<path class="st0" d="M200,124.9c0,0,0-0.1,0-0.1c0,0,0-0.1,0-0.1V86.4v0c0-1.2-0.4-3.5-2.8-5.5L158,50.4c-2.2-1.7-5.7-2.6-10.5-2.8
	c-1.8-0.1-3.5-0.1-5.2,0.1L26.2,57.9c-10.1,0.9-11.7,5.4-11.7,8.3h0v38.1h0c-0.1,2.2,0.9,4.3,2.8,5.8l4.2,3.3l-9.6,0.8
	c-6.6,0.6-8.9,2.5-10.1,3.9c-1.1,1.3-1.6,2.8-1.6,4.4h0v38.1h0c-0.1,2.2,0.9,4.3,2.8,5.8l39.2,30.5c1.5,1.2,3.6,2,6.6,2.5
	c1.8,0.3,3.7,0.4,5.7,0.4c1.2,0,2.3-0.1,3.4-0.2l116-10.1c9.3-0.8,11.5-4.7,11.7-7.9h0v-38.7v0v0c0-2.1-1-4-2.8-5.5l-4.3-3.3
	l9.6-0.8c9.3-0.8,11.6-4.6,11.7-7.9h0V124.9z M26.6,78.9l20,15.5l-20,1.8V78.9z M58,105.6v20.7l-24-18.6L58,105.6z M187.9,112
	l-20-15.5l20-1.7V112z M143.3,59.8c1.1-0.1,2.3-0.1,3.6-0.1c2.2,0.1,3.5,0.4,4,0.6l29.6,23L148.9,86l-0.1,0l-0.1,0l-0.3,0
	c-0.3,0-0.6,0-0.9-0.1c-0.1,0-0.1,0-0.2,0c-1.8-0.1-3.4,0-5,0.1l-45.6,4l-26.5,2.3v0l-4.4,0.4c-1.1-0.1-1.8-0.3-2.1-0.4l-29.6-23
	L143.3,59.8z M173.6,168.3l-20-15.5l20-1.7V168.3z M12.4,135.2l19.9,15.5l-19.9,1.7V135.2z M19.8,164l24-2.1v20.7L19.8,164z
	 M56.9,187.5c-0.3,0-0.7,0-1.1,0.1v-26.2c0.7,0,1.4-0.1,2.1-0.1l76.4-6.7c1.1,0.1,1.9,0.3,2.2,0.4l29.6,23L56.9,187.5z M166.2,139.6
	l-31.7,2.8c-0.4,0-0.8-0.1-1.3-0.1c-0.2,0-0.5,0-0.7,0c-0.5,0-1.1,0-1.6,0c-0.2,0-0.3,0-0.5,0c-0.8,0-1.7,0.1-2.4,0.1L51.5,149
	c-1.1-0.1-1.8-0.3-2.2-0.4l-29.6-23l15.9-1.4l21,16.3c0.4,0.3,0.9,0.6,1.4,0.8v0.7l5.1,0.8c0,0,0,0,0,0l7,1.2v-0.7c0,0,0,0,0,0
	c0.7,0,1.4-0.1,2.1-0.1l88.6-7.8L166.2,139.6z M164.6,123L164.6,123l-93.4,8.2c-0.3,0-0.7,0-1,0.1V105c0.1,0,0.1,0,0.2,0
	c0.6,0,1.3-0.1,2-0.1l75.5-6.6l1-0.1l0,0l0,0c1.1,0.1,1.8,0.3,2.1,0.4l29.6,23L164.6,123z"/>
</svg>
