<?xml version="1.0" encoding="utf-8"?>
<!-- Generator: Adobe Illustrator 22.0.0, SVG Export Plug-In . SVG Version: 6.00 Build 0)  -->
<svg version="1.1" id="图层_1" xmlns="http://www.w3.org/2000/svg" xmlns:xlink="http://www.w3.org/1999/xlink" x="0px" y="0px"
	 viewBox="0 0 200 200" style="enable-background:new 0 0 200 200;" xml:space="preserve">
<style type="text/css">
	.st0{fill:#DFBB65;}
</style>
<g>
	<path class="st0" d="M99,54.2c-7.3,0-14.4-0.2-20.7-0.7c-20.5-1.5-24.2-4.5-26.2-7.3l-1.7-2.4l1-6l2.6-2.2c0.5-0.3,0.9-0.7,1.3-1.1
		c1.8-1.8,2.8-4.2,2.8-6.8c0-3-1.3-5.8-3.7-7.6c-0.2-0.2-0.4-0.3-0.5-0.4l-1.4-0.9l-1.8-3.1l0-2.2c0-8.3,9.9-9.3,18.6-10.1
		C77.2,2.4,87.8,2,99,2c5.6,0,34.1,0.2,42.6,3.6l4.2,1.7l0.6,4.7c0.3,2.9-1.1,5.7-3.7,7.2c-0.6,0.3-1.1,0.7-1.6,1.2
		c-2,1.9-3.1,4.4-3.1,7.1c0,2.3,0.8,4.6,2.4,6.3c0.4,0.4,0.8,0.8,1.3,1.2c0.4,0.3,0.8,0.6,1.3,0.9l10.1,5.6l-9.4,6.7
		c-1.4,1-5.2,3.7-24,5.1C113.4,53.9,106.3,54.2,99,54.2z M70.3,37.9c2.3,0.3,5.3,0.7,9.1,0.9c11.8,0.9,27.4,0.9,39.2,0
		c2.9-0.2,5.3-0.5,7.3-0.7c-1.6-3.3-2.4-6.9-2.4-10.6c0-3.5,0.7-6.9,2.1-10c-6.5-0.6-15.5-1-26.6-1c-12.2,0-21.9,0.5-28.4,1.1
		c1.3,3,2,6.4,2,9.8C72.6,31.2,71.8,34.7,70.3,37.9z"/>
</g>
<g>
	<path class="st0" d="M132.4,199.5c-2,0-4-0.1-6-0.2c-1.9-0.1-3.8-0.2-5.8-0.2H58.9c-12.2,0-21.5-9.3-28.2-17.5
		c-15.1-18.3-19.3-42.8-21.3-62.1c-1.4-13.9-1.9-30.1,5-45.1c7.7-16.8,21.1-30.2,37.5-37.9l0.8-0.4c0.9-0.4,1.8-0.8,2.7-1.1l5.4-2.1
		l2.5,3.6c1.5,0.5,5.9,1.6,16.2,2.4c11.8,0.9,27.4,0.9,39.2,0c13.5-1,16.8-2.6,16.8-2.6l3.8-2.7L143,36c1.1,0.6,2.2,1,3.4,1.1
		c4.4,0.5,8.3,3.5,12.7,7c0.5,0.4,1,0.8,1.4,1.1c3.8,2.9,7.3,6.1,10.5,9.7c6.5,7.2,11.5,15.5,14.9,24.5c2.9,7.8,4.5,16.9,4.5,26.8
		l0,0c0.2,17.9-3.8,35.8-11.4,52c-4.5,9.5-12.1,23-22.8,32.9C148.6,198.3,140.3,199.5,132.4,199.5z M57.6,50
		c-13,6.1-23.9,17.3-30,30.6c-5.5,11.8-5,25.6-3.7,37.5c1.8,17.2,5.4,39,18,54.2c4.7,5.7,10.9,12.2,17,12.2h61.7
		c2.1,0,4.3,0.1,6.4,0.2c9.1,0.4,14.5,0.3,19.3-4.2c7-6.5,13.9-16.6,19.5-28.4c6.7-14.2,10.2-30,10-45.7l0,0
		c-0.1-8.3-1.3-15.6-3.6-21.9c-2.7-7.3-6.8-14-12-19.8c-2.6-2.9-5.5-5.5-8.5-7.9c-0.5-0.4-1.1-0.9-1.7-1.4c-1.3-1.1-4.3-3.5-5.6-3.9
		c-1.6-0.2-3.3-0.6-5-1.2c-3.3,1.1-9.1,2.3-19.7,3.1c-12.5,0.9-28.9,0.9-41.4,0C67.5,52.6,61.3,51.4,57.6,50z"/>
</g>
<g>
	<path class="st0" d="M98.6,166.5c-2.9,0-5.8-1.1-8-3.3L52.4,125c-2.1-2.1-3.3-4.9-3.3-8c0-3,1.2-5.8,3.3-8l38.3-38.3
		c4.4-4.4,11.5-4.4,15.9,0l38.3,38.3c2.1,2.1,3.3,4.9,3.3,8c0,3-1.2,5.8-3.3,8l-38.3,38.3C104.4,165.5,101.5,166.5,98.6,166.5z
		 M65.1,117l33.5,33.5l33.5-33.5L98.6,83.5L65.1,117z"/>
</g>
</svg>
