<?xml version="1.0" encoding="utf-8"?>
<!-- Generator: Adobe Illustrator 22.0.0, SVG Export Plug-In . SVG Version: 6.00 Build 0)  -->
<svg version="1.1" id="图层_1" xmlns="http://www.w3.org/2000/svg" xmlns:xlink="http://www.w3.org/1999/xlink" x="0px" y="0px"
	 viewBox="0 0 200 200" style="enable-background:new 0 0 200 200;" xml:space="preserve">
	 <style>
		.ts0{fill: #DFBB65}
	 </style>
<path class="ts0" d="M158.8,11.1l-1-4.6l-3.2,3.4c-7,7.3-30.3,16.3-47.3,22.8c-5.2,2-10.1,3.9-14.1,5.5C82.6,42.7,30.1,67,31.6,117.1
	c0.8,27.6,9.8,42.2,16.4,52.9c4.4,7.2,7.3,11.9,6,17.4l-1.4,5.5l5-2.7c0.1,0,8.3-4.5,17.7-9.3c13.8-7,23.5-9.7,32-12.1
	c11.1-3.1,19.8-5.5,31.7-15.7c9.5-8.1,21.2-18.2,26.7-39.6C171.4,90.5,169.2,57,158.8,11.1z M99.9,140.5c16.9-5.2,27-15.4,29.8-18.5
	c0.5-0.5,0.9-0.9,1.2-1.4l-4.2-2.7c0,0-0.2,0.3-0.5,0.6c-5,4.2-29.3,11-34,10.8c-0.4-0.9-0.5-3.9,0.9-7.3c1.1-2.6,3.8-7,9.7-7.9
	c19.7-3,32.8-16.1,33.3-16.7l8.5-8.7l-11.3,4.6c-10.7,4.4-23.5,8.6-28.1,8.9c5.7-13.4,27.4-35.6,27.6-35.8l7.2-7.3l-9.8,3.2
	c-14.4,4.7-36.2,33.4-47.9,48.8c-1.9,2.4-3.7,4.8-4.9,6.3c-1-3.2-2.1-9.5-2.9-14.1c-1.2-7.1-2.4-13.8-4-16.8c-0.5-1-1.9-3.7-4.4-2.9
	c-3.1,1-3.4,3.4,0.6,33.9c1.3,9.9,2.6,20.1,2.5,23.8c-0.1,6.1-4.6,17.5-7.8,24.9c-0.4-0.5-0.8-1-1.2-1.6c-3.5-4.5-8.2-10.6-12.4-28
	c-13.5-56.7,31-75,54.9-84.8c20.4-8.4,38.8-16.8,45.8-20.1c2,12.2,8.5,56.2,1.3,81.5c-7.6,26.7-30.8,34.4-49.4,40.5
	c-1.6,0.5-3.1,1-4.6,1.5c-5.9,2-12.2,4.9-18.8,8.6C79.5,154.7,86.4,144.6,99.9,140.5z"/>
</svg>
