<?xml version="1.0" encoding="utf-8"?>
<!-- Generator: Adobe Illustrator 22.0.0, SVG Export Plug-In . SVG Version: 6.00 Build 0)  -->
<svg version="1.1" id="图层_1" xmlns="http://www.w3.org/2000/svg" xmlns:xlink="http://www.w3.org/1999/xlink" x="0px" y="0px"
	 viewBox="0 0 200 200" style="enable-background:new 0 0 200 200;" xml:space="preserve">
<style type="text/css">
	.st0{fill:#FFDEA9;}
</style>
<g>
	<path class="st0" d="M99.9,111l-6.9-9.7c-3.3-4.6-31.5-45.9-21.4-74.9c2.7-7.7,9.4-17.9,25.9-22.7l1.8-0.5l1.8,0.3
		c0.8,0.1,20.2,3.3,28,21.5c7.8,18.4,0.3,44-22.4,76.3L99.9,111z M100.3,20.4c-6.7,2.4-10.9,6.1-12.8,11.5
		c-4.7,13.5,4.6,35,12.6,49.1c13.3-21.5,18.2-38.9,13.6-49.5C110.7,24.2,103.5,21.3,100.3,20.4z"/>
</g>
<g>
	<path class="st0" d="M48.9,119c-12.7,0-25.8-2.3-35.3-9.5C7.1,104.6-0.5,95.1,0,77.9L0.1,76l0.8-1.7c0.4-0.7,9.4-18.2,29.1-20
		c19.9-1.7,42,13.3,65.7,44.9l7.1,9.5l-11.4,3.5C88.1,113.4,68.9,119,48.9,119z M16.8,80.5c0.2,7.1,2.5,12.3,7,15.7
		c11.4,8.7,34.7,6.4,50.6,3.2C58,80.1,43.1,70.2,31.6,71.1C23.6,71.7,18.7,77.7,16.8,80.5z"/>
</g>
<g>
	<path class="st0" d="M55.5,196.4c-4.4,0-9.5-0.8-15-2.8l-1.7-0.6l-1.3-1.3c-0.6-0.6-14.4-14.6-10-33.8c4.5-19.5,25.7-35.8,63-48.6
		l11.3-3.9l-0.2,11.9c-0.1,5.6-1.5,55.7-26.7,73.2C70.4,193.5,64,196.4,55.5,196.4z M48.1,178.5c6.8,2,12.4,1.4,17.1-1.8
		c11.8-8.2,16.8-31,18.7-47.1c-23.4,9.6-37.5,20.8-40.1,32C42,169.4,46.1,175.8,48.1,178.5z"/>
</g>
<g>
	<path class="st0" d="M142.8,197.2c-5.5,0-11.7-1.2-17.8-4.9c-17.1-10.3-26.1-35.5-26.7-74.9L98,105.5l11.3,3.8
		c5.3,1.8,52.5,18.6,61.3,48c2.3,7.8,2.9,19.9-7.6,33.6l-1.1,1.5l-1.7,0.9C159.8,193.5,152.4,197.2,142.8,197.2z M115.6,129.9
		c1.9,25.1,8.1,42,17.9,48c6.9,4.2,14.3,2.3,17.5,1.1c4-5.9,5.2-11.4,3.6-16.8C150.5,148.5,130.3,136.6,115.6,129.9z"/>
</g>
<g>
	<path class="st0" d="M154.1,120.6c-12.8,0-28.1-2.7-45.8-8.2L97,108.9l7.1-9.5c3.4-4.5,33.8-44.2,64.6-43.5
		c8.1,0.2,19.9,3.4,29.6,17.6l1,1.5l0.3,1.8c0.1,0.8,3.1,20.3-11.8,33.2C179.9,117.1,168.6,120.6,154.1,120.6z M125.6,99.8
		c24.6,6,42.6,5.3,51.3-2.3c6-5.2,6.5-12.9,6.4-16.2c-4.3-5.7-9.2-8.5-14.9-8.6c-0.1,0-0.3,0-0.4,0C153.7,72.7,136.5,88,125.6,99.8z
		"/>
</g>
</svg>
