<?xml version="1.0" encoding="utf-8"?>
<!-- Generator: Adobe Illustrator 22.0.0, SVG Export Plug-In . SVG Version: 6.00 Build 0)  -->
<svg version="1.1" id="图层_1" xmlns="http://www.w3.org/2000/svg" xmlns:xlink="http://www.w3.org/1999/xlink" x="0px" y="0px"
	 viewBox="0 0 200 200" style="enable-background:new 0 0 200 200;" xml:space="preserve">
<g>
	<style>
		.st0{fill:#666}
	</style>
	<g>
		<rect class="st0" x="89.9" width="18" height="200"/>
	</g>
	<g>
		<rect class="st0" x="72.2" y="11.8" transform="matrix(0.4724 -0.8814 0.8814 0.4724 14.3751 88.6132)" width="18" height="41.1"/>
	</g>
	<g>
		<rect class="st0" x="96.2" y="23.3" transform="matrix(0.8809 -0.4734 0.4734 0.8809 -1.3928 59.0662)" width="41" height="18"/>
	</g>
	<g>
		<rect class="st0" x="60.7" y="155.4" transform="matrix(0.8814 -0.4723 0.4723 0.8814 -68.0235 57.8489)" width="41.1" height="18"/>
	</g>
	<g>
		<rect class="st0" x="107.7" y="143.9" transform="matrix(0.4734 -0.8809 0.8809 0.4734 -83.382 189.3342)" width="18" height="41"/>
	</g>
</g>
<g>
	<g>
		<rect class="st0" x="89.9" y="0" transform="matrix(0.5 -0.866 0.866 0.5 -37.153 135.6482)" width="18" height="200"/>
	</g>
	<g>
		<rect class="st0" x="10.8" y="72.5" transform="matrix(0.851 -0.5252 0.5252 0.851 -38.1222 28.6334)" width="41.1" height="18"/>
	</g>
	<g>
		<rect class="st0" x="28.6" y="41.8" transform="matrix(3.168359e-02 -0.9995 0.9995 3.168359e-02 -3.1816 98.3155)" width="41" height="18"/>
	</g>
	<g>
		
			<rect class="st0" x="125.2" y="138.5" transform="matrix(2.918860e-02 -0.9996 0.9996 2.918860e-02 -5.9424 288.9812)" width="41.1" height="18"/>
	</g>
	<g>
		<rect class="st0" x="143" y="107.8" transform="matrix(0.8503 -0.5262 0.5262 0.8503 -36.9873 103.5469)" width="41" height="18"/>
	</g>
</g>
<g>
	<g>
		<rect class="st0" x="-0.4" y="90.6" transform="matrix(0.866 -0.5 0.5 0.866 -36.4567 63.1461)" width="200" height="18"/>
	</g>
	<g>
		<rect class="st0" x="40.8" y="128.3" transform="matrix(0.9995 -3.168663e-02 3.168663e-02 0.9995 -4.6899 1.6543)" width="18" height="41"/>
	</g>
	<g>
		<rect class="st0" x="23.2" y="97.6" transform="matrix(0.5263 -0.8503 0.8503 0.5263 -85.1915 83.2837)" width="18" height="41"/>
	</g>
	<g>
		<rect class="st0" x="155.3" y="62.3" transform="matrix(0.5263 -0.8503 0.8503 0.5263 7.404 178.8898)" width="18" height="41"/>
	</g>
	<g>
		<rect class="st0" x="137.6" y="31.5" transform="matrix(0.9995 -3.168663e-02 3.168663e-02 0.9995 -1.5741 4.6698)" width="18" height="41"/>
	</g>
</g>
</svg>
