<?xml version="1.0" encoding="utf-8"?>
<!-- Generator: Adobe Illustrator 22.0.0, SVG Export Plug-In . SVG Version: 6.00 Build 0)  -->
<svg version="1.1" id="图层_1" xmlns="http://www.w3.org/2000/svg" xmlns:xlink="http://www.w3.org/1999/xlink" x="0px" y="0px"
	 viewBox="0 0 200 200" style="enable-background:new 0 0 200 200;" xml:space="preserve">
<g>
	<style type="text/css">
		.st0{fill:#666;}
	</style>
	<path class="st0" d="M175.3,163.3H26c-13.8,0-25.1-11.3-25.1-25.1c0-6.7,2.6-12.9,7.3-17.7c2.4-2.4,5.3-4.3,8.4-5.6C17.9,71.2,53.9,36,98,36
		c43.6,0,79.3,34.4,81.3,77.5c5.1,0.8,9.8,3.2,13.6,6.9c4.8,4.7,7.4,11,7.4,17.8c0,6.6-2.6,12.8-7.2,17.7L193,156
		C188.2,160.7,182,163.3,175.3,163.3z M98,54c-35,0-63.4,28.4-63.4,63.4c0,1.3,0.1,2.7,0.2,4.2l0.6,9.6l-9.6,0
		c-2.3,0-3.9,1.1-4.8,2.1c-1.3,1.3-2.1,3.1-2.1,4.9c0,3.8,3.3,7.1,7.1,7.1h149.3c1.8,0,3.6-0.7,4.9-2c1.4-1.4,2.1-3.2,2.1-5.1
		c0-1.9-0.7-3.6-2.1-5c-1.3-1.3-3.1-2-4.9-2c0,0-0.1,0-0.1,0l-0.1,0h-14.5l0.6-9.6c0.1-1.5,0.2-2.9,0.2-4.2C161.4,82.4,133,54,98,54
		z"/>
</g>
<g>
	<path class="st0" d="M100.6,53.9c-13.1,0-23.7-10.6-23.7-23.7c0-13.1,10.6-23.7,23.7-23.7c13.1,0,23.7,10.6,23.7,23.7
		C124.3,43.3,113.7,53.9,100.6,53.9z M100.6,24.5c-3.1,0-5.7,2.6-5.7,5.7s2.6,5.7,5.7,5.7s5.7-2.6,5.7-5.7S103.7,24.5,100.6,24.5z"
		/>
</g>
<g>
	<rect class="st0" x="6.7" y="177.5" width="187.8" height="18"/>
</g>
</svg>
