<?xml version="1.0" encoding="utf-8"?>
<!-- Generator: Adobe Illustrator 22.0.0, SVG Export Plug-In . SVG Version: 6.00 Build 0)  -->
<svg version="1.1" id="图层_1" xmlns="http://www.w3.org/2000/svg" xmlns:xlink="http://www.w3.org/1999/xlink" x="0px" y="0px"
	 viewBox="0 0 200 200" style="enable-background:new 0 0 200 200;" xml:space="preserve">
<style type="text/css">
	.st0{fill:#666;}
	.st1{fill:#666;}
</style>
<g>
	<path class="st0" d="M180,199.1H19.9V1H180V199.1z M37.9,181.1H162V19H37.9V181.1z"/>
</g>
<g>
	<rect x="28.9" y="57.5" class="st0" width="142.1" height="18"/>
</g>
<g>
	<circle class="st0" cx="58.6" cy="39" r="9"/>
</g>
<g>
	<circle class="st0" cx="84.4" cy="39" r="9"/>
</g>
<g>
	<path class="st1" d="M93.3,136.5c-0.8-1.2-1.9-2.7-2.7-4.5l15.6-8.9c0.8,1.2,1.9,2.7,2.7,4.5L93.3,136.5z"/>
</g>
<g>
	<path class="st1" d="M93.3,136.5c-0.8-1.2-1.9-2.7-2.7-4.5l15.6-8.9c0.8,1.2,1.9,2.7,2.7,4.5L93.3,136.5z"/>
</g>
<g>
	<path class="st1" d="M112.8,146.2c-7.6,0-14.9-3.6-19.5-9.7l-0.6-0.8l-0.4-0.9c-0.1-0.1-0.2-0.3-0.5-0.8c-1.2-1.6-3.1-2.5-5.1-2.5
		c-3.5,0-6.4,2.9-6.4,6.4c0,0.7,0.1,1.2,0.1,1.4l-17.2,5c-1.7-4.5-2.6-9.2-2.6-14.1c0-21.6,17.6-39.2,39.2-39.2
		c10.7,0,21.1,4.4,28.4,12.2c3.3,3.4,5.9,7.4,7.7,11.8l0.1,0.3c0.7,2.1,1.1,4.3,1.1,6.5C137.2,135.3,126.3,146.2,112.8,146.2z
		 M108.1,126.2c1.2,1.3,2.9,2,4.7,2c3.5,0,6.4-2.9,6.4-6.4c0-0.1,0-0.2,0-0.2c-0.9-2.2-2.3-4.2-4-5.9c-4.1-4.3-9.5-6.6-15.4-6.6
		c-4.9,0-9.4,1.7-13,4.5c7.6,0,14.9,3.6,19.4,9.7C106.9,124.2,107.6,125.2,108.1,126.2z"/>
</g>
<g>
	<path class="st1" d="M100,169.4c-11.9,0-22.9-5.2-30.4-14.4c-2.5-3-4.6-6.6-6.2-10.6l-0.3-0.8l-0.2-0.8c-0.3-1.6-0.5-3.2-0.5-5
		c0-13.5,10.9-24.4,24.4-24.4c7.6,0,14.9,3.6,19.5,9.7l0.6,0.8l0.4,1c0.1,0.1,0.2,0.3,0.5,0.8c1.2,1.6,3.1,2.5,5.1,2.5
		c3.5,0,6.4-2.9,6.4-6.4c0-0.5,0-0.8-0.1-1l17.2-5.4c1.8,5.2,2.7,10,2.7,14.8C139.2,151.8,121.6,169.4,100,169.4z M80.5,138.6
		c0.8,1.9,1.8,3.5,3,4.9l0.1,0.1c4,4.9,10,7.8,16.4,7.8c5.3,0,10.2-2,13.9-5.2c-0.3,0-0.6,0-0.9,0c-7.6,0-14.9-3.6-19.5-9.7
		c-0.8-1-1.4-2-1.9-3c-1.2-1.3-2.9-2-4.7-2c-3.5,0-6.4,2.9-6.4,6.4C80.5,138.2,80.5,138.4,80.5,138.6z"/>
</g>
<g>
	<path class="st1" d="M93.3,136.5c-0.8-1.2-1.9-2.7-2.7-4.5l15.6-8.9c0.8,1.2,1.9,2.7,2.7,4.5L93.3,136.5z"/>
</g>
</svg>
