<?xml version="1.0" encoding="utf-8"?>
<!-- Generator: Adobe Illustrator 22.0.0, SVG Export Plug-In . SVG Version: 6.00 Build 0)  -->
<svg version="1.1" id="图层_1" xmlns="http://www.w3.org/2000/svg" xmlns:xlink="http://www.w3.org/1999/xlink" x="0px" y="0px"
	 viewBox="0 0 200 200" style="enable-background:new 0 0 200 200;" xml:space="preserve">
<path class="ts0" d="M61,132.4l10,10c7.7-7.7,18.1-12.1,29-12.1c10.7,0,20.9,4.1,28.5,11.5l10-10C117,110.8,82.5,110.9,61,132.4z"/>
<path class="ts0" d="M156.8,112.7l10-10c-37.5-36.5-97.4-36-134.4,1l10,10c7.8-7.8,16.9-13.8,27-17.9c9.8-4,20.1-6,30.7-6c10.6,0,21,2,30.7,6
	C140.5,99.7,149.2,105.4,156.8,112.7z M87.2,158.6L99,170.4l12.8-12.8C104.7,151.5,94,151.8,87.2,158.6z"/>
	<style>
		.ts0{fill: #666}
	</style>
<path class="ts0" d="M4.8,76.2l10,10c11.5-11.5,24.9-20.4,39.9-26.5c14.4-5.9,29.7-8.8,45.3-8.8c15.7,0,30.9,2.9,45.3,8.8
	c14.7,6,28,14.8,39.3,26l10-10C142.2,23.7,57.3,23.8,4.8,76.2z"/>
</svg>
